# xmcd CD database file
# Copyright (C) 1993-1996 Ti Kan
#
# Track frame offsets:
# 150
# 10025
# 22255
# 33187
# 45965
# 56152
# 66722
# 74017
# 85600
# 96990
# 107285
# 117660
# 125215
# 137665
# 151460
# 163837
# 176557
# 188627
# 203037
# 213467
# 223420
# 231922
# 243417
#
# Disc length: 3430 seconds
#
# Revision: 0
# Processed by: cddbd v1.4PL0 Copyright (c) Steve Scherf et al.
# Submitted via: inCDius 1.1b5
#
DISCID=5a0d6417
DTITLE=Ernest Tubb - Walking The Floor Over You - Disc 6
DYEAR=1996
DGENRE=Country
TTITLE0=I Loved You Once
TTITLE1=I'll Step Aside
TTITLE2=Worried Mind
TTITLE3=A Year Ago Tonight
TTITLE4=Time Changes Everthing
TTITLE5=What Good Will It Do
TTITLE6=My Time Will Come Someday
TTITLE7=Grey-Eyed Darling
TTITLE8=I Never Cross Your Mind
TTITLE9=I Told You So
TTITLE10=I'm Beginning To Forget You
TTITLE11=I'm Gonna Be Long Gone When I Go Away
TTITLE12=I Walk Alone
TTITLE13=Heart Of Stone
TTITLE14=You'll Want Me Back (But I Won't Care)
TTITLE15=Our Baby Boy
TTITLE16=Hang Your Head In Shame
TTITLE17=The Last Goodbye
TTITLE18=Pins And Needles (In My Heart)
TTITLE19=The Love I Have For You
TTITLE20=I'll Never Tell You I Love You
TTITLE21=I Knew The Moment I Lost You
TTITLE22=I Wonder If You Feel The Way I Do
EXTD=
EXTT0=
EXTT1=
EXTT2=
EXTT3=
EXTT4=
EXTT5=
EXTT6=
EXTT7=
EXTT8=
EXTT9=
EXTT10=
EXTT11=
EXTT12=
EXTT13=
EXTT14=
EXTT15=
EXTT16=
EXTT17=
EXTT18=
EXTT19=
EXTT20=
EXTT21=
EXTT22=
PLAYORDER=
